<svg width="64" height="64" viewBox="0 0 64 64" fill="none" xmlns="http://www.w3.org/2000/svg">
<g filter="url(#filter0_d_18_600)">
<circle cx="32" cy="26" r="24" fill="#EBA6A6"/>
</g>
<path d="M39.5732 29.0802L38.6635 27.9884C38.0974 27.3011 37.7943 26.4317 37.7943 25.5421L37.7941 23.5004C37.7941 20.5487 35.5702 18.1025 32.7197 17.7386V16.7278C32.7197 16.3235 32.3962 16 31.9919 16C31.5876 16 31.2641 16.3235 31.2641 16.7278V17.7386C28.4135 18.1025 26.1897 20.5488 26.1897 23.5004V25.5423C26.1897 26.4318 25.8865 27.3011 25.3205 27.9885L24.4309 29.0802C23.966 29.6462 23.8648 30.4347 24.1884 31.1018C24.5119 31.769 25.1587 32.1935 25.9069 32.1935H28.6968C28.8585 33.8916 30.2737 35.2058 32.0123 35.2058C33.751 35.2058 35.1661 33.8715 35.3279 32.1935H38.1178C38.8658 32.1935 39.5128 31.7689 39.8363 31.1018C40.1191 30.4347 40.0381 29.6664 39.5732 29.0802H39.5732ZM31.992 33.7502C31.0619 33.7502 30.2938 33.0629 30.1522 32.1733H33.8316C33.6901 33.0629 32.9219 33.7502 31.9919 33.7502H31.992ZM38.5017 30.4752C38.4613 30.556 38.3602 30.738 38.0974 30.738L25.8866 30.7379C25.6237 30.7379 25.5227 30.556 25.4823 30.475C25.4418 30.3942 25.3811 30.192 25.5429 29.9898L26.4325 28.8982C27.2007 27.948 27.6252 26.7552 27.6252 25.522V23.5004C27.6455 21.0946 29.5862 19.1336 31.992 19.1336C34.3978 19.1336 36.3386 21.0947 36.3386 23.4802V25.5221C36.3386 26.7553 36.7632 27.948 37.5314 28.8983L38.4209 29.9899C38.603 30.1923 38.5424 30.3943 38.5019 30.4753L38.5017 30.4752Z" fill="white"/>
<defs>
<filter id="filter0_d_18_600" x="0" y="0" width="64" height="64" filterUnits="userSpaceOnUse" color-interpolation-filters="sRGB">
<feFlood flood-opacity="0" result="BackgroundImageFix"/>
<feColorMatrix in="SourceAlpha" type="matrix" values="0 0 0 0 0 0 0 0 0 0 0 0 0 0 0 0 0 0 127 0" result="hardAlpha"/>
<feOffset dy="6"/>
<feGaussianBlur stdDeviation="4"/>
<feComposite in2="hardAlpha" operator="out"/>
<feColorMatrix type="matrix" values="0 0 0 0 0.921569 0 0 0 0 0.65098 0 0 0 0 0.65098 0 0 0 0.3 0"/>
<feBlend mode="normal" in2="BackgroundImageFix" result="effect1_dropShadow_18_600"/>
<feBlend mode="normal" in="SourceGraphic" in2="effect1_dropShadow_18_600" result="shape"/>
</filter>
</defs>
</svg>
