<svg width="48" height="48" viewBox="0 0 48 48" fill="none" xmlns="http://www.w3.org/2000/svg">
<circle cx="24" cy="24" r="24" fill="#EBA6A6"/>
<path d="M31.5732 27.0802L30.6635 25.9884C30.0974 25.3011 29.7943 24.4317 29.7943 23.5421L29.7941 21.5004C29.7941 18.5487 27.5702 16.1025 24.7197 15.7386V14.7278C24.7197 14.3235 24.3962 14 23.9919 14C23.5876 14 23.2641 14.3235 23.2641 14.7278V15.7386C20.4135 16.1025 18.1897 18.5488 18.1897 21.5004V23.5423C18.1897 24.4318 17.8865 25.3011 17.3205 25.9885L16.4309 27.0802C15.966 27.6462 15.8648 28.4347 16.1884 29.1018C16.5119 29.769 17.1587 30.1935 17.9069 30.1935H20.6968C20.8585 31.8916 22.2737 33.2058 24.0123 33.2058C25.751 33.2058 27.1661 31.8715 27.3279 30.1935H30.1178C30.8658 30.1935 31.5128 29.7689 31.8363 29.1018C32.1191 28.4347 32.0381 27.6664 31.5732 27.0802H31.5732ZM23.992 31.7502C23.0619 31.7502 22.2938 31.0629 22.1522 30.1733H25.8316C25.6901 31.0629 24.9219 31.7502 23.9919 31.7502H23.992ZM30.5017 28.4752C30.4613 28.556 30.3602 28.738 30.0974 28.738L17.8866 28.7379C17.6237 28.7379 17.5227 28.556 17.4823 28.475C17.4418 28.3942 17.3811 28.192 17.5429 27.9898L18.4325 26.8982C19.2007 25.948 19.6252 24.7552 19.6252 23.522V21.5004C19.6455 19.0946 21.5862 17.1336 23.992 17.1336C26.3978 17.1336 28.3386 19.0947 28.3386 21.4802V23.5221C28.3386 24.7553 28.7632 25.948 29.5314 26.8983L30.4209 27.9899C30.603 28.1923 30.5424 28.3943 30.5019 28.4753L30.5017 28.4752Z" fill="white"/>
</svg>
