<svg width="155" height="155" viewBox="0 0 155 155" fill="none" xmlns="http://www.w3.org/2000/svg">
<path fill-rule="evenodd" clip-rule="evenodd" d="M10.3806 38.752C8.81982 41.4572 9.74573 44.9175 12.451 46.4805L26.2773 54.4629C28.984 56.0253 32.4432 55.0993 34.0062 52.3925C35.5695 49.686 34.6401 46.2254 31.9357 44.6629L18.1099 36.6809C15.4043 35.1181 11.9433 36.0451 10.3806 38.752ZM38.7493 10.3826C36.0427 11.9454 35.116 15.4062 36.6787 18.1117L44.661 31.9382C46.2234 34.6424 49.6837 35.5716 52.3899 34.0083C55.0968 32.4453 56.0231 28.9857 54.4605 26.2792L46.4783 12.4527C44.9152 9.74752 41.4544 8.82162 38.7493 10.3826ZM11.2755 109.428C9.46503 111.241 9.09747 114.044 10.3798 116.262C24.1391 140.036 49.5184 155 77.4995 155C120.306 155 155 120.303 155 77.4983C155 34.6935 120.303 0 77.4995 0C74.3754 0 71.8425 2.5329 71.8425 5.65701V74.235L12.3617 108.576L11.3528 109.351L11.2755 109.428ZM23.2177 115.377L80.3294 82.4015C82.0795 81.3903 83.1578 79.5223 83.1578 77.5012L83.1571 11.552C117.063 14.4219 143.684 42.8495 143.684 77.4998C143.684 114.058 114.055 143.687 77.4981 143.687C55.534 143.687 35.45 132.896 23.2177 115.377ZM0 77.5007C0 80.6257 2.53245 83.1591 5.65695 83.1591H21.6222C24.7459 83.1591 27.2805 80.6265 27.2805 77.5007C27.2805 74.3759 24.7456 71.8437 21.6222 71.8437H5.65695C2.53287 71.8437 0 74.3766 0 77.5007Z" fill="white"/>
</svg>
