<svg width="186" height="186" viewBox="0 0 186 186" fill="none" xmlns="http://www.w3.org/2000/svg">
<path fill-rule="evenodd" clip-rule="evenodd" d="M12.4567 46.5024C10.5838 49.7486 11.6949 53.901 14.9412 55.7766L31.5328 65.3555C34.7808 67.2304 38.9318 66.1192 40.8074 62.871C42.6834 59.6233 41.5682 55.4705 38.3228 53.5955L21.7319 44.017C18.4851 42.1418 14.332 43.2541 12.4567 46.5024ZM46.4992 12.4591C43.2512 14.3345 42.1392 18.4875 44.0145 21.7341L53.5932 38.3258C55.4681 41.5709 59.6205 42.6859 62.8679 40.81C66.1162 38.9344 67.2277 34.7829 65.3526 31.535L55.7739 14.9433C53.8983 11.697 49.7453 10.5859 46.4992 12.4591ZM13.5306 131.314C11.358 133.489 10.917 136.853 12.4557 139.514C28.9669 168.043 59.4221 186 92.9994 186C144.367 186 186 144.364 186 92.9979C186 41.6322 144.364 0 92.9994 0C89.2505 0 86.2111 3.03948 86.2111 6.78841V89.082L14.8341 130.291L13.6234 131.221L13.5306 131.314ZM27.8612 138.452L96.3952 98.8818C98.4954 97.6683 99.7894 95.4268 99.7894 93.0014L99.7886 13.8624C140.476 17.3063 172.421 51.4194 172.421 92.9998C172.421 136.869 136.866 172.424 92.9977 172.424C66.6408 172.424 42.54 159.475 27.8612 138.452ZM0 93.0008C0 96.7509 3.03894 99.7909 6.78834 99.7909H25.9466C29.6951 99.7909 32.7366 96.7518 32.7366 93.0008C32.7366 89.2511 29.6947 86.2124 25.9466 86.2124H6.78834C3.03945 86.2124 0 89.2519 0 93.0008Z" fill="white"/>
</svg>
