<svg width="64" height="64" viewBox="0 0 64 64" fill="none" xmlns="http://www.w3.org/2000/svg">
<g filter="url(#filter0_d_18_599)">
<circle cx="32" cy="26" r="24" fill="#EBA6A6"/>
</g>
<path d="M39.1158 29.6484C38.6387 30.5848 37.9806 31.4172 37.1795 32.0976C36.3785 32.778 35.4505 33.2928 34.4493 33.6122C33.4501 33.937 32.3962 34.0603 31.3491 33.9751C30.3018 33.89 29.2819 33.5979 28.3483 33.1158C27.099 32.4751 26.0403 31.5167 25.2788 30.3372C24.5173 29.1577 24.0795 27.7983 24.0099 26.3961C23.9401 24.9937 24.2408 23.5977 24.8814 22.3483C25.8495 20.4608 27.5279 19.0351 29.5472 18.3849C31.5665 17.7348 33.7613 17.9134 35.6489 18.8814L36.076 19.1007L36.3945 18.4799C36.5111 18.2663 36.7359 18.1345 36.9793 18.137C37.2225 18.1395 37.4446 18.2759 37.5569 18.4917L38.5478 20.5192V20.5194C38.6456 20.7024 38.6477 20.9216 38.5534 21.1065C38.4537 21.2869 38.2767 21.4115 38.0734 21.4447L35.8546 21.8115C35.6117 21.8538 35.3659 21.755 35.22 21.5562C35.074 21.3574 35.0534 21.0934 35.1665 20.8743L35.4828 20.2577L35.055 20.0381L35.0548 20.0379C33.202 19.088 31.0127 19.0538 29.1309 19.9454C27.2494 20.8369 25.8895 22.5529 25.4513 24.5885C25.013 26.6239 25.5465 28.7475 26.8947 30.3346C28.2429 31.9216 30.2522 32.7909 32.3321 32.6874C34.4116 32.584 36.3248 31.5191 37.5085 29.8063C38.6922 28.0934 39.0125 25.9274 38.3743 23.9455C38.2642 23.604 38.4517 23.2381 38.7932 23.128C39.1347 23.0179 39.5006 23.2054 39.6107 23.5469C39.9355 24.5463 40.059 25.6 39.9739 26.6473C39.8891 27.6946 39.5973 28.7146 39.1156 29.6486L39.1158 29.6484Z" fill="white"/>
<defs>
<filter id="filter0_d_18_599" x="0" y="0" width="64" height="64" filterUnits="userSpaceOnUse" color-interpolation-filters="sRGB">
<feFlood flood-opacity="0" result="BackgroundImageFix"/>
<feColorMatrix in="SourceAlpha" type="matrix" values="0 0 0 0 0 0 0 0 0 0 0 0 0 0 0 0 0 0 127 0" result="hardAlpha"/>
<feOffset dy="6"/>
<feGaussianBlur stdDeviation="4"/>
<feComposite in2="hardAlpha" operator="out"/>
<feColorMatrix type="matrix" values="0 0 0 0 0.921569 0 0 0 0 0.65098 0 0 0 0 0.65098 0 0 0 0.3 0"/>
<feBlend mode="normal" in2="BackgroundImageFix" result="effect1_dropShadow_18_599"/>
<feBlend mode="normal" in="SourceGraphic" in2="effect1_dropShadow_18_599" result="shape"/>
</filter>
</defs>
</svg>
