<svg width="48" height="48" viewBox="0 0 48 48" fill="none" xmlns="http://www.w3.org/2000/svg">
<circle cx="24" cy="24" r="24" fill="#F99393"/>
<path d="M31.1158 27.6484C30.6387 28.5848 29.9806 29.4172 29.1795 30.0976C28.3785 30.778 27.4505 31.2928 26.4493 31.6122C25.4501 31.937 24.3962 32.0603 23.3491 31.9751C22.3018 31.89 21.2819 31.5979 20.3483 31.1158C19.099 30.4751 18.0403 29.5167 17.2788 28.3372C16.5173 27.1577 16.0795 25.7983 16.0099 24.3961C15.9401 22.9937 16.2408 21.5977 16.8814 20.3483C17.8495 18.4608 19.5279 17.0351 21.5472 16.3849C23.5665 15.7348 25.7613 15.9134 27.6489 16.8814L28.076 17.1007L28.3945 16.4799C28.5111 16.2663 28.7359 16.1345 28.9793 16.137C29.2225 16.1395 29.4446 16.2759 29.5569 16.4917L30.5478 18.5192V18.5194C30.6456 18.7024 30.6477 18.9216 30.5534 19.1065C30.4537 19.2869 30.2767 19.4115 30.0734 19.4447L27.8546 19.8115C27.6117 19.8538 27.3659 19.755 27.22 19.5562C27.074 19.3574 27.0534 19.0934 27.1665 18.8743L27.4828 18.2577L27.055 18.0381L27.0548 18.0379C25.202 17.088 23.0127 17.0538 21.1309 17.9454C19.2494 18.8369 17.8895 20.5529 17.4513 22.5885C17.013 24.6239 17.5465 26.7475 18.8947 28.3346C20.2429 29.9216 22.2522 30.7909 24.3321 30.6874C26.4116 30.584 28.3248 29.5191 29.5085 27.8063C30.6922 26.0934 31.0125 23.9274 30.3743 21.9455C30.2642 21.604 30.4517 21.2381 30.7932 21.128C31.1347 21.0179 31.5006 21.2054 31.6107 21.5469C31.9355 22.5463 32.059 23.6 31.9739 24.6473C31.8891 25.6946 31.5973 26.7146 31.1156 27.6486L31.1158 27.6484Z" fill="white"/>
</svg>
