<svg width="20" height="20" viewBox="0 0 20 20" fill="none" xmlns="http://www.w3.org/2000/svg">
<path d="M19.4459 8.34781C19.7175 8.15049 19.905 7.86133 19.9725 7.53611C20.0399 7.21087 19.9824 6.87257 19.811 6.58666L17.8552 3.34838C17.6905 3.05293 17.4135 2.83395 17.0847 2.73905C16.7559 2.644 16.4021 2.68116 16.1011 2.84194L14.3828 3.61696C14.0815 3.42025 13.768 3.24228 13.444 3.0841L13.2693 1.1953L13.2559 1.10071C13.1981 0.795281 13.0348 0.51902 12.7935 0.318492C12.5522 0.117941 12.2479 0.00538467 11.932 6.86755e-06H8.11231C7.77289 -0.00106806 7.44582 0.124082 7.19639 0.35028C6.94714 0.576627 6.79414 0.887116 6.76806 1.21957L6.59554 3.08639C6.26925 3.24195 5.95422 3.41916 5.65246 3.61694L3.91177 2.83103L3.86926 2.81337H3.86911C3.56469 2.69282 3.22639 2.68361 2.91555 2.78742C2.60471 2.89122 2.3422 3.10114 2.17546 3.37909L0.280225 6.58006C0.109112 6.86599 0.0516044 7.20382 0.118485 7.52892C0.185525 7.85401 0.372424 8.14332 0.643229 8.34126L2.22482 9.44198C2.20685 9.61366 2.19576 9.79639 2.19576 9.99017C2.19576 10.184 2.19576 10.3578 2.22264 10.5252L0.591635 11.6302L0.558038 11.6544V11.6543C0.285192 11.8507 0.0964208 12.1395 0.0281324 12.4649C-0.040156 12.7903 0.0168809 13.1291 0.188308 13.4155L2.10606 16.6561C2.2689 16.9332 2.52596 17.1451 2.83195 17.2548C3.16871 17.365 3.53704 17.3306 3.84676 17.1602L5.57401 16.3852C5.87452 16.5819 6.18721 16.7598 6.51053 16.918L6.68742 18.8068L6.70086 18.8993C6.75853 19.2042 6.92167 19.4803 7.16232 19.6807C7.40313 19.8813 7.70707 19.9942 8.02259 20H11.8446C12.1839 20.0011 12.5111 19.8758 12.7604 19.6496C13.0096 19.4234 13.1628 19.1129 13.1887 18.7804L13.3612 16.9202C13.6877 16.7631 14.0027 16.5844 14.3043 16.3852L16.0495 17.1756L16.092 17.1932H16.0922C16.3966 17.3138 16.7349 17.323 17.0457 17.2192C17.3566 17.1152 17.6191 16.9053 17.7858 16.6274L19.6811 13.4221C19.8536 13.1369 19.9125 12.7991 19.8462 12.4739C19.7801 12.1486 19.5935 11.8588 19.3226 11.6609L17.8641 10.5691C17.8836 10.3804 17.8933 10.1907 17.8933 10.0011C17.8933 9.80731 17.8821 9.62473 17.8643 9.45291L19.4324 8.35219L19.4459 8.34781ZM15.9444 8.63405L16.0205 9.16459V9.16444C16.068 9.441 16.0949 9.72062 16.1011 10.001C16.0949 10.2814 16.068 10.5611 16.0205 10.8376L15.9466 11.3505L17.9449 12.8452L16.4304 15.41L14.0648 14.34L13.6324 14.6901C13.1828 15.0335 12.6866 15.3135 12.1583 15.5222L11.6676 15.7248L11.4435 18.241H8.43263L8.20854 15.7248L7.71784 15.5178H7.718C7.18309 15.2939 6.67819 15.0063 6.21469 14.6614L5.78684 14.3466L3.43903 15.41L1.93573 12.8629L3.68986 11.6895L4.15132 11.3769L4.07287 10.8331H4.07303C4.02412 10.5581 3.99568 10.28 3.98786 10.001C3.99411 9.72059 4.02099 9.44096 4.0685 9.1644L4.1446 8.63385L2.01638 7.13912L3.52624 4.58541L5.88965 5.6531L6.32207 5.30529H6.32222C6.7718 4.96177 7.26798 4.68169 7.79632 4.47314L8.29154 4.2772L8.51564 1.76095H11.5219L11.746 4.2772L12.2367 4.4842H12.2366C12.7715 4.70809 13.2764 4.99572 13.7399 5.3406L14.1677 5.6554L16.511 4.59642L18.0658 7.13909L15.9444 8.63405Z" fill="#A3A3A3"/>
<path d="M9.99993 6.66687C9.11589 6.66687 8.26801 7.01809 7.64289 7.64308C7.0179 8.2682 6.66669 9.11611 6.66669 10.0001C6.66669 10.8841 7.0179 11.732 7.64289 12.3572C8.26801 12.9821 9.11592 13.3334 9.99993 13.3334C10.8839 13.3334 11.7318 12.9821 12.357 12.3572C12.982 11.732 13.3332 10.8841 13.3332 10.0001C13.3426 9.11323 12.9946 8.25992 12.3673 7.63279C11.7401 7.00551 10.8868 6.65742 9.99993 6.66687V6.66687ZM9.99993 11.7814V11.7813C9.52759 11.7813 9.07448 11.5937 8.74046 11.2597C8.40644 10.9256 8.21885 10.4725 8.21885 10.0002C8.21885 9.52785 8.40643 9.07474 8.74046 8.74072C9.07447 8.4067 9.52759 8.21911 9.99993 8.21911C10.4723 8.21911 10.9254 8.40669 11.2594 8.74072C11.5934 9.07473 11.781 9.52785 11.781 10.0002C11.7863 10.4742 11.6003 10.9302 11.2652 11.2655C10.93 11.6006 10.4739 11.7865 9.99993 11.7813V11.7814Z" fill="#A3A3A3"/>
</svg>
